<?xml version="1.0" encoding="UTF-8" standalone="no"?>
<!-- Created with Inkscape (http://www.inkscape.org/) -->

<svg
   width="126.49969mm"
   height="140.10699mm"
   viewBox="0 0 126.49969 140.10699"
   version="1.1"
   id="svg5"
   inkscape:version="1.1.1 (3bf5ae0d25, 2021-09-20)"
   sodipodi:docname="logo.svg"
   xmlns:inkscape="http://www.inkscape.org/namespaces/inkscape"
   xmlns:sodipodi="http://sodipodi.sourceforge.net/DTD/sodipodi-0.dtd"
   xmlns="http://www.w3.org/2000/svg"
   xmlns:svg="http://www.w3.org/2000/svg">
  <sodipodi:namedview
     id="namedview7"
     pagecolor="#efefef"
     bordercolor="#666666"
     borderopacity="1.0"
     inkscape:pageshadow="2"
     inkscape:pageopacity="0"
     inkscape:pagecheckerboard="0"
     inkscape:document-units="mm"
     showgrid="false"
     fit-margin-top="0"
     fit-margin-left="0"
     fit-margin-right="0"
     fit-margin-bottom="0"
     inkscape:zoom="0.38885732"
     inkscape:cx="-5.1432746"
     inkscape:cy="340.74194"
     inkscape:window-width="1280"
     inkscape:window-height="1314"
     inkscape:window-x="0"
     inkscape:window-y="27"
     inkscape:window-maximized="0"
     inkscape:current-layer="layer1" />
  <defs
     id="defs2" />
  <g
     inkscape:label="Layer 1"
     inkscape:groupmode="layer"
     id="layer1"
     transform="translate(-42.312093,-71.92394)">
    <path
       style="fill:#ff3b3f;fill-opacity:1;stroke-width:0.273651"
       d="m 42.470563,211.23905 c 0.0871,-0.43553 5.597201,-30.32626 12.244662,-66.42385 6.647459,-36.09758 12.32164,-66.266474 12.6093,-67.041972 0.846277,-2.281483 2.164819,-3.766668 4.259631,-4.797982 l 1.842213,-0.906955 47.692711,-0.07218 47.69271,-0.07218 -0.0716,45.908779 -0.0717,45.90877 -0.58874,1.25961 c -0.72501,1.55116 -2.07068,3.11374 -3.40915,3.95868 -1.15922,0.73177 -11.87449,4.58329 -43.4806,15.62874 -17.75772,6.20582 -67.829886,23.62986 -76.997647,26.79353 l -1.88035,0.64889 z m 80.281577,-50.07906 c 8.08908,-1.98691 13.29655,-6.85235 15.78537,-14.74858 1.22873,-3.89836 1.58477,-6.58205 1.57191,-11.84825 -0.0286,-11.70326 -1.62076,-17.50908 -6.05353,-22.0738 -2.45524,-2.52833 -5.46766,-3.96047 -9.37491,-4.45693 -3.99879,-0.50811 -8.22283,0.81462 -11.15304,3.49245 -1.48913,1.36091 -3.27514,2.48736 -3.29311,2.07702 -0.005,-0.11673 -0.0359,-5.69212 -0.0684,-12.38975 l -0.0591,-12.177476 -7.18336,-0.07296 -7.183343,-0.07296 v 33.331956 33.33198 l 1.710325,1.11897 c 3.615138,2.36522 7.945158,4.07444 11.997518,4.73587 1.11491,0.18199 2.21183,0.37593 2.43758,0.43098 1.23734,0.30176 8.79705,-0.17032 10.86611,-0.67853 z m -6.35086,-11.1174 c -0.30101,-0.0692 -1.1938,-0.25665 -1.98396,-0.41646 l -1.43667,-0.29059 V 135.83142 122.3273 l 1.29984,-0.40673 c 2.36157,-0.73893 3.8471,-1.00553 5.5942,-1.00399 3.40135,0.003 5.13454,0.93214 6.37804,3.41911 l 0.82096,1.64191 -0.0416,8.79976 c -0.047,9.9557 -0.21088,11.07866 -1.88719,12.93411 -1.32999,1.47216 -3.21451,2.21534 -5.95458,2.34825 -1.23296,0.0598 -2.48803,0.0521 -2.78904,-0.0171 z"
       id="path201" />
  </g>
</svg>
